<svg xmlns="http://www.w3.org/2000/svg" width="900" height="280" viewBox="0 0 900 280">
<rect width="100%" height="100%" fill="#FAFAFA"/>
<text x="450" y="36" text-anchor="middle" font-family="DejaVu Sans,Arial,sans-serif" font-size="18" font-weight="700" fill="#222">Unified 55-dim Action / State Space</text>
<text x="450" y="58" text-anchor="middle" font-family="DejaVu Sans,Arial,sans-serif" font-size="12" fill="#666">Missing body parts are zero-padded; joint_mask marks valid dims</text>
<rect x="40.0" y="90" width="208.7" height="56" fill="#4C78A8" stroke="#fff" stroke-width="1.5" rx="3"/>
<text x="144.4" y="123.0" text-anchor="middle" font-family="DejaVu Sans,Arial,sans-serif" font-size="11" font-weight="600" fill="#fff">arm (14)</text>
<rect x="248.7" y="90" width="208.7" height="56" fill="#F58518" stroke="#fff" stroke-width="1.5" rx="3"/>
<text x="353.1" y="123.0" text-anchor="middle" font-family="DejaVu Sans,Arial,sans-serif" font-size="11" font-weight="600" fill="#fff">end (14)</text>
<rect x="457.5" y="90" width="29.8" height="56" fill="#E45756" stroke="#fff" stroke-width="1.5" rx="3"/>
<text x="472.4" y="123.0" text-anchor="middle" font-family="DejaVu Sans,Arial,sans-serif" font-size="11" font-weight="600" fill="#fff">effector (2)</text>
<rect x="487.3" y="90" width="178.9" height="56" fill="#72B7B2" stroke="#fff" stroke-width="1.5" rx="3"/>
<text x="576.7" y="123.0" text-anchor="middle" font-family="DejaVu Sans,Arial,sans-serif" font-size="11" font-weight="600" fill="#fff">hand (12)</text>
<rect x="666.2" y="90" width="59.6" height="56" fill="#54A24B" stroke="#fff" stroke-width="1.5" rx="3"/>
<text x="696.0" y="123.0" text-anchor="middle" font-family="DejaVu Sans,Arial,sans-serif" font-size="11" font-weight="600" fill="#fff">waist (4)</text>
<rect x="725.8" y="90" width="29.8" height="56" fill="#EECA3B" stroke="#fff" stroke-width="1.5" rx="3"/>
<text x="740.7" y="123.0" text-anchor="middle" font-family="DejaVu Sans,Arial,sans-serif" font-size="11" font-weight="600" fill="#fff">head (2)</text>
<rect x="755.6" y="90" width="44.7" height="56" fill="#B279A2" stroke="#fff" stroke-width="1.5" rx="3"/>
<text x="778.0" y="123.0" text-anchor="middle" font-family="DejaVu Sans,Arial,sans-serif" font-size="11" font-weight="600" fill="#fff">base (3)</text>
<rect x="800.4" y="90" width="59.6" height="56" fill="#9D755D" stroke="#fff" stroke-width="1.5" rx="3"/>
<text x="830.2" y="123.0" text-anchor="middle" font-family="DejaVu Sans,Arial,sans-serif" font-size="11" font-weight="600" fill="#fff">reserved (4)</text>
<line x1="40" y1="158" x2="860" y2="158" stroke="#888" stroke-width="1"/>
<line x1="40.0" y1="154" x2="40.0" y2="162" stroke="#888"/>
<text x="40.0" y="178" text-anchor="middle" font-family="DejaVu Sans,Arial,sans-serif" font-size="11" fill="#444">0</text>
<line x1="248.7" y1="154" x2="248.7" y2="162" stroke="#888"/>
<text x="248.7" y="178" text-anchor="middle" font-family="DejaVu Sans,Arial,sans-serif" font-size="11" fill="#444">14</text>
<line x1="457.5" y1="154" x2="457.5" y2="162" stroke="#888"/>
<text x="457.5" y="178" text-anchor="middle" font-family="DejaVu Sans,Arial,sans-serif" font-size="11" fill="#444">28</text>
<line x1="487.3" y1="154" x2="487.3" y2="162" stroke="#888"/>
<text x="487.3" y="178" text-anchor="middle" font-family="DejaVu Sans,Arial,sans-serif" font-size="11" fill="#444">30</text>
<line x1="666.2" y1="154" x2="666.2" y2="162" stroke="#888"/>
<text x="666.2" y="178" text-anchor="middle" font-family="DejaVu Sans,Arial,sans-serif" font-size="11" fill="#444">42</text>
<line x1="725.8" y1="154" x2="725.8" y2="162" stroke="#888"/>
<text x="725.8" y="178" text-anchor="middle" font-family="DejaVu Sans,Arial,sans-serif" font-size="11" fill="#444">46</text>
<line x1="755.6" y1="154" x2="755.6" y2="162" stroke="#888"/>
<text x="755.6" y="178" text-anchor="middle" font-family="DejaVu Sans,Arial,sans-serif" font-size="11" fill="#444">48</text>
<line x1="800.4" y1="154" x2="800.4" y2="162" stroke="#888"/>
<text x="800.4" y="178" text-anchor="middle" font-family="DejaVu Sans,Arial,sans-serif" font-size="11" fill="#444">51</text>
<line x1="860.0" y1="154" x2="860.0" y2="162" stroke="#888"/>
<text x="860.0" y="178" text-anchor="middle" font-family="DejaVu Sans,Arial,sans-serif" font-size="11" fill="#444">55</text>
<rect x="40" y="220" width="12" height="12" fill="#4C78A8" rx="2"/>
<text x="58" y="231" font-family="DejaVu Sans,Arial,sans-serif" font-size="11" fill="#333">arm.position = 14</text>
<rect x="250" y="220" width="12" height="12" fill="#F58518" rx="2"/>
<text x="268" y="231" font-family="DejaVu Sans,Arial,sans-serif" font-size="11" fill="#333">end.position = 14</text>
<rect x="460" y="220" width="12" height="12" fill="#E45756" rx="2"/>
<text x="478" y="231" font-family="DejaVu Sans,Arial,sans-serif" font-size="11" fill="#333">effector.position = 2</text>
<rect x="670" y="220" width="12" height="12" fill="#72B7B2" rx="2"/>
<text x="688" y="231" font-family="DejaVu Sans,Arial,sans-serif" font-size="11" fill="#333">hand.position = 12</text>
<rect x="40" y="242" width="12" height="12" fill="#54A24B" rx="2"/>
<text x="58" y="253" font-family="DejaVu Sans,Arial,sans-serif" font-size="11" fill="#333">waist.position = 4</text>
<rect x="250" y="242" width="12" height="12" fill="#EECA3B" rx="2"/>
<text x="268" y="253" font-family="DejaVu Sans,Arial,sans-serif" font-size="11" fill="#333">head.position = 2</text>
<rect x="460" y="242" width="12" height="12" fill="#B279A2" rx="2"/>
<text x="478" y="253" font-family="DejaVu Sans,Arial,sans-serif" font-size="11" fill="#333">base.position = 3</text>
<rect x="670" y="242" width="12" height="12" fill="#9D755D" rx="2"/>
<text x="688" y="253" font-family="DejaVu Sans,Arial,sans-serif" font-size="11" fill="#333">reserved = 4</text>
</svg>