<svg xmlns="http://www.w3.org/2000/svg" width="720" height="420" viewBox="0 0 720 420">
<rect width="100%" height="100%" fill="#FAFAFA"/>
<text x="360" y="28" text-anchor="middle" font-family="DejaVu Sans,Arial,sans-serif" font-size="16" font-weight="700" fill="#222">Flow Matching (1D intuition)</text>
<defs><marker id="arrow" markerWidth="8" markerHeight="8" refX="6" refY="3" orient="auto"><path d="M0,0 L6,3 L0,6 Z" fill="#F58518"/></marker></defs>
<line x1="70" y1="50" x2="70" y2="360" stroke="#333" stroke-width="1.5"/>
<line x1="70" y1="360" x2="680" y2="360" stroke="#333" stroke-width="1.5"/>
<text x="375.0" y="402" text-anchor="middle" font-family="DejaVu Sans,Arial,sans-serif" font-size="13" fill="#333">t (noise ← → action)</text>
<text x="18" y="205.0" text-anchor="middle" font-family="DejaVu Sans,Arial,sans-serif" font-size="13" fill="#333" transform="rotate(-90 18 205.0)">x_t</text>
<polyline points="70.0,288.5 85.2,283.7 100.5,278.9 115.8,274.2 131.0,269.4 146.2,264.6 161.5,259.8 176.8,255.1 192.0,250.3 207.2,245.5 222.5,240.8 237.8,236.0 253.0,231.2 268.2,226.5 283.5,221.7 298.8,216.9 314.0,212.2 329.2,207.4 344.5,202.6 359.8,197.8 375.0,193.1 390.2,188.3 405.5,183.5 420.8,178.8 436.0,174.0 451.2,169.2 466.5,164.5 481.8,159.7 497.0,154.9 512.2,150.2 527.5,145.4 542.8,140.6 558.0,135.8 573.2,131.1 588.5,126.3 603.8,121.5 619.0,116.8 634.2,112.0 649.5,107.2 664.8,102.5 680.0,97.7" fill="none" stroke="#4C78A8" stroke-width="3"/>
<circle cx="70" cy="288.46153846153845" r="7" fill="#54A24B"/>
<circle cx="680" cy="97.6923076923077" r="7" fill="#E45756"/>
<text x="80" y="280.46153846153845" font-family="DejaVu Sans,Arial,sans-serif" font-size="12" fill="#54A24B">action a=0.2</text>
<text x="560" y="87.6923076923077" font-family="DejaVu Sans,Arial,sans-serif" font-size="12" fill="#E45756">noise ε=1.0</text>
<line x1="222.5" y1="240.8" x2="271.3" y2="225.5" stroke="#F58518" stroke-width="2.5" marker-end="url(#arrow)"/>
<line x1="375.0" y1="193.1" x2="423.8" y2="177.8" stroke="#F58518" stroke-width="2.5" marker-end="url(#arrow)"/>
<line x1="527.5" y1="145.4" x2="576.3" y2="130.1" stroke="#F58518" stroke-width="2.5" marker-end="url(#arrow)"/>
<rect x="90" y="70" width="300" height="78" fill="#fff" stroke="#ddd" rx="6"/>
<text x="105" y="92" font-family="DejaVu Sans,Arial,sans-serif" font-size="12" fill="#222">x_t = t·ε + (1−t)·a</text>
<text x="105" y="112" font-family="DejaVu Sans,Arial,sans-serif" font-size="12" fill="#222">u_t = ε − a = 0.8 (train target)</text>
<text x="105" y="132" font-family="DejaVu Sans,Arial,sans-serif" font-size="12" fill="#666">Inference: Euler from t=1→0, x ← x + dt·v_θ</text>
<text x="70" y="382" text-anchor="middle" font-family="DejaVu Sans,Arial,sans-serif" font-size="11" fill="#444">0 (clean)</text>
<text x="680" y="382" text-anchor="middle" font-family="DejaVu Sans,Arial,sans-serif" font-size="11" fill="#444">1 (noise)</text>
</svg>