<svg xmlns="http://www.w3.org/2000/svg" width="920" height="520" viewBox="0 0 920 520">
<rect width="100%" height="100%" fill="#FAFAFA"/>
<defs><marker id="arr" markerWidth="8" markerHeight="8" refX="6" refY="3" orient="auto"><path d="M0,0 L6,3 L0,6 Z" fill="#555"/></marker></defs>
<text x="460" y="32" text-anchor="middle" font-family="DejaVu Sans,Arial,sans-serif" font-size="17" font-weight="700" fill="#222">Token-level Sparse MoE in Action Expert</text>
<text x="460" y="54" text-anchor="middle" font-family="DejaVu Sans,Arial,sans-serif" font-size="12" fill="#666">robotwin.yaml: N_r=32, K=4, sigmoid router, λ=4.0, shared expert always on</text>
<rect x="40" y="100" width="140" height="70" fill="#D6EAF8" stroke="#333" stroke-width="1.5" rx="8"/>
<text x="110.0" y="133.0" text-anchor="middle" font-family="DejaVu Sans,Arial,sans-serif" font-size="13" font-weight="600" fill="#222">token u</text>
<text x="110.0" y="151.0" text-anchor="middle" font-family="DejaVu Sans,Arial,sans-serif" font-size="11" fill="#555">hidden state</text>
<rect x="240" y="100" width="160" height="70" fill="#FCF3CF" stroke="#333" stroke-width="1.5" rx="8"/>
<text x="320.0" y="133.0" text-anchor="middle" font-family="DejaVu Sans,Arial,sans-serif" font-size="13" font-weight="600" fill="#222">Router (FP32)</text>
<text x="320.0" y="151.0" text-anchor="middle" font-family="DejaVu Sans,Arial,sans-serif" font-size="11" fill="#555">sigmoid + bias</text>
<rect x="460" y="80" width="200" height="50" fill="#D5F5E3" stroke="#333" stroke-width="1.5" rx="8"/>
<text x="560.0" y="103.0" text-anchor="middle" font-family="DejaVu Sans,Arial,sans-serif" font-size="13" font-weight="600" fill="#222">Shared Expert E^(s)</text>
<text x="560.0" y="121.0" text-anchor="middle" font-family="DejaVu Sans,Arial,sans-serif" font-size="11" fill="#555">all tokens</text>
<rect x="460" y="160" width="70" height="44" fill="#FADBD8" stroke="#E74C3C" stroke-width="1.5" rx="8"/>
<text x="495.0" y="180.0" text-anchor="middle" font-family="DejaVu Sans,Arial,sans-serif" font-size="13" font-weight="600" fill="#222">E0</text>
<rect x="542" y="160" width="70" height="44" fill="#EAECEE" stroke="#ABB2B9" stroke-width="1.5" rx="8"/>
<text x="577.0" y="180.0" text-anchor="middle" font-family="DejaVu Sans,Arial,sans-serif" font-size="13" font-weight="600" fill="#222">E1</text>
<rect x="624" y="160" width="70" height="44" fill="#EAECEE" stroke="#ABB2B9" stroke-width="1.5" rx="8"/>
<text x="659.0" y="180.0" text-anchor="middle" font-family="DejaVu Sans,Arial,sans-serif" font-size="13" font-weight="600" fill="#222">E2</text>
<rect x="706" y="160" width="70" height="44" fill="#FADBD8" stroke="#E74C3C" stroke-width="1.5" rx="8"/>
<text x="741.0" y="180.0" text-anchor="middle" font-family="DejaVu Sans,Arial,sans-serif" font-size="13" font-weight="600" fill="#222">E3</text>
<rect x="788" y="160" width="70" height="44" fill="#EAECEE" stroke="#ABB2B9" stroke-width="1.5" rx="8"/>
<text x="823.0" y="180.0" text-anchor="middle" font-family="DejaVu Sans,Arial,sans-serif" font-size="13" font-weight="600" fill="#222">E4</text>
<rect x="870" y="160" width="70" height="44" fill="#EAECEE" stroke="#ABB2B9" stroke-width="1.5" rx="8"/>
<text x="905.0" y="180.0" text-anchor="middle" font-family="DejaVu Sans,Arial,sans-serif" font-size="13" font-weight="600" fill="#222">E5</text>
<rect x="460" y="218" width="70" height="44" fill="#EAECEE" stroke="#ABB2B9" stroke-width="1.5" rx="8"/>
<text x="495.0" y="238.0" text-anchor="middle" font-family="DejaVu Sans,Arial,sans-serif" font-size="13" font-weight="600" fill="#222">E6</text>
<rect x="542" y="218" width="70" height="44" fill="#FADBD8" stroke="#E74C3C" stroke-width="1.5" rx="8"/>
<text x="577.0" y="238.0" text-anchor="middle" font-family="DejaVu Sans,Arial,sans-serif" font-size="13" font-weight="600" fill="#222">E7</text>
<rect x="624" y="218" width="70" height="44" fill="#EAECEE" stroke="#ABB2B9" stroke-width="1.5" rx="8"/>
<text x="659.0" y="238.0" text-anchor="middle" font-family="DejaVu Sans,Arial,sans-serif" font-size="13" font-weight="600" fill="#222">E8</text>
<rect x="706" y="218" width="70" height="44" fill="#EAECEE" stroke="#ABB2B9" stroke-width="1.5" rx="8"/>
<text x="741.0" y="238.0" text-anchor="middle" font-family="DejaVu Sans,Arial,sans-serif" font-size="13" font-weight="600" fill="#222">E9</text>
<rect x="788" y="218" width="70" height="44" fill="#EAECEE" stroke="#ABB2B9" stroke-width="1.5" rx="8"/>
<text x="823.0" y="238.0" text-anchor="middle" font-family="DejaVu Sans,Arial,sans-serif" font-size="13" font-weight="600" fill="#222">E10</text>
<rect x="870" y="218" width="70" height="44" fill="#FADBD8" stroke="#E74C3C" stroke-width="1.5" rx="8"/>
<text x="905.0" y="238.0" text-anchor="middle" font-family="DejaVu Sans,Arial,sans-serif" font-size="13" font-weight="600" fill="#222">…</text>
<text x="905.0" y="256.0" text-anchor="middle" font-family="DejaVu Sans,Arial,sans-serif" font-size="11" fill="#555">E31</text>
<text x="670" y="280" text-anchor="middle" font-family="DejaVu Sans,Arial,sans-serif" font-size="12" fill="#C0392B">Top-K=4 selected (red)</text>
<rect x="40" y="360" width="200" height="70" fill="#E8DAEF" stroke="#333" stroke-width="1.5" rx="8"/>
<text x="140.0" y="393.0" text-anchor="middle" font-family="DejaVu Sans,Arial,sans-serif" font-size="13" font-weight="600" fill="#222">MoE output m(u)</text>
<text x="140.0" y="411.0" text-anchor="middle" font-family="DejaVu Sans,Arial,sans-serif" font-size="11" fill="#555">shared + λ Σ g_j E_j</text>
<line x1="180" y1="135" x2="240" y2="135" stroke="#555" stroke-width="2" marker-end="url(#arr)"/>
<line x1="400" y1="120" x2="460" y2="105" stroke="#555" stroke-width="2" marker-end="url(#arr)"/>
<line x1="400" y1="145" x2="460" y2="180" stroke="#555" stroke-width="2" marker-end="url(#arr)"/>
<line x1="140" y1="170" x2="140" y2="360" stroke="#555" stroke-width="2" marker-end="url(#arr)"/>
<line x1="560" y1="270" x2="200" y2="360" stroke="#555" stroke-width="2" marker-end="url(#arr)"/>
<rect x="280" y="340" width="600" height="140" fill="#fff" stroke="#ddd" rx="8"/>
<text x="300" y="370" font-family="DejaVu Sans,Arial,sans-serif" font-size="13" fill="#222">s_j = Sigmoid(uᵀ e_j)     (affinity; not softmax)</text>
<text x="300" y="392" font-family="DejaVu Sans,Arial,sans-serif" font-size="13" fill="#222">R(u) = TopK(s_j + b_j, K)  (selection uses bias)</text>
<text x="300" y="414" font-family="DejaVu Sans,Arial,sans-serif" font-size="13" fill="#222">g_j = s_j / Σ_{k∈R} s_k     (weights ignore bias)</text>
<text x="300" y="436" font-family="DejaVu Sans,Arial,sans-serif" font-size="13" fill="#222">b_j ← b_j − γ · sign(n_j − mean n)   (loss-free LB)</text>
<text x="300" y="458" font-family="DejaVu Sans,Arial,sans-serif" font-size="13" fill="#222">m(u) = E^(s)(u) + λ Σ_{j∈R} g_j E_j^(r)(u)</text>
</svg>